<svg width="400" height="400" viewBox="0 0 400 400" xmlns="http://www.w3.org/2000/svg">
  <defs>
    <linearGradient id="avatarGradient" x1="0%" y1="0%" x2="100%" y2="100%">
      <stop offset="0%" style="stop-color:#D3B26A;stop-opacity:1" />
      <stop offset="100%" style="stop-color:#0E6B6B;stop-opacity:1" />
    </linearGradient>
    <linearGradient id="glowGradient" x1="0%" y1="0%" x2="100%" y2="100%">
      <stop offset="0%" style="stop-color:#00FFFF;stop-opacity:0.8" />
      <stop offset="100%" style="stop-color:#D3B26A;stop-opacity:0.8" />
    </linearGradient>
  </defs>
  
  <!-- Background circles -->
  <circle cx="200" cy="200" r="180" fill="none" stroke="url(#avatarGradient)" stroke-width="2" opacity="0.3"/>
  <circle cx="200" cy="200" r="150" fill="none" stroke="url(#glowGradient)" stroke-width="1" opacity="0.5"/>
  
  <!-- 3D Avatar representation -->
  <ellipse cx="200" cy="140" rx="60" ry="80" fill="url(#avatarGradient)" opacity="0.9"/>
  
  <!-- Body -->
  <path d="M 200 220 L 160 350 M 200 220 L 240 350" stroke="url(#avatarGradient)" stroke-width="25" stroke-linecap="round"/>
  <path d="M 200 220 L 140 280 M 200 220 L 260 280" stroke="url(#avatarGradient)" stroke-width="20" stroke-linecap="round"/>
  
  <!-- Scanning lines -->
  <line x1="100" y1="100" x2="300" y2="100" stroke="#00FFFF" stroke-width="2" opacity="0.6">
    <animate attributeName="y1" values="100;300;100" dur="3s" repeatCount="indefinite"/>
    <animate attributeName="y2" values="100;300;100" dur="3s" repeatCount="indefinite"/>
  </line>
  
  <!-- Measurement points -->
  <circle cx="200" cy="140" r="5" fill="#D3B26A">
    <animate attributeName="r" values="5;8;5" dur="2s" repeatCount="indefinite"/>
  </circle>
  <circle cx="160" cy="220" r="5" fill="#D3B26A">
    <animate attributeName="r" values="5;8;5" dur="2s" begin="0.5s" repeatCount="indefinite"/>
  </circle>
  <circle cx="240" cy="220" r="5" fill="#D3B26A">
    <animate attributeName="r" values="5;8;5" dur="2s" begin="1s" repeatCount="indefinite"/>
  </circle>
  
  <!-- Digital grid overlay -->
  <rect x="50" y="50" width="300" height="300" fill="none" stroke="#0E6B6B" stroke-width="1" opacity="0.3"/>
  <line x1="50" y1="200" x2="350" y2="200" stroke="#0E6B6B" stroke-width="1" opacity="0.3"/>
  <line x1="200" y1="50" x2="200" y2="350" stroke="#0E6B6B" stroke-width="1" opacity="0.3"/>
</svg>
